# xmcd
#
# Track frame offsets: 
#        150
#        17539
#        31391
#        50024
#        66724
#        111024
#        192711
#
# Disc length: 2641 seconds
#
# Revision: 0
# Processed by: cddbd v1.5.2PL0 Copyright (c) Steve Scherf et al.
# Submitted via: ExactAudioCopy v1.3
#
DISCID=650a4f07
DTITLE=Black Cat Bone - Delta Blues
DYEAR=1990
DGENRE=Blues Rock
TTITLE0=Treat Me Right
TTITLE1=Larry Is Back
TTITLE2=Ain't Doin' Too Bad
TTITLE3=Just A Fool
TTITLE4=Reconsider Baby
TTITLE5=Delta Blues
TTITLE6=A Hachch'n A Maji
EXTD=
EXTT0=
EXTT1=
EXTT2=
EXTT3=
EXTT4=
EXTT5=
EXTT6=
PLAYORDER=
